<?xml version="1.0" encoding="utf-8"?>
<!-- Generator: Adobe Illustrator 15.0.0, SVG Export Plug-In . SVG Version: 6.00 Build 0)  -->
<!DOCTYPE svg PUBLIC "-//W3C//DTD SVG 1.1//EN" "http://www.w3.org/Graphics/SVG/1.1/DTD/svg11.dtd">
<svg version="1.1" id="Camada_1" xmlns="http://www.w3.org/2000/svg" xmlns:xlink="http://www.w3.org/1999/xlink" x="0px" y="0px"
	 width="1190.55px" height="841.89px" viewBox="0 0 1190.55 841.89" enable-background="new 0 0 1190.55 841.89"
	 xml:space="preserve">
<g id="Camada_1_1_" display="none">
	
		<image display="inline" overflow="visible" enable-background="new    " width="450" height="470" xlink:href="e332c2014cbf77d95ff2f719146325e9.jpg"  transform="matrix(0.8556 0 0 0.8166 416 186.8887)">
	</image>
</g>
<g id="Camada_3">
	<path fill="#6CCE30" d="M429.572,493.342c0,0-42.095-51.995-63.467-58.318c0,0,33.029,56.21,63.467,64.642V493.342z"/>
	<polyline fill="#E29F31" points="429.572,613.186 429.572,444.16 439.788,444.16 439.788,613.186 	"/>
	<path fill="#E29F31" d="M439.788,445.564c0,0,7.933-31.063-0.026-61.665c-7.26-27.918-5.513,0-5.513,0l-0.208,60.26
		L439.788,445.564z"/>
	<path fill="#E29F31" d="M429.734,445.564c0,0-6.512-29.477,0.83-60.26c7.352-30.778,5.513,0,5.513,0l0.208,60.26H429.734
		L429.734,445.564z"/>
	<path fill="#519B24" d="M429.572,498.436c0,0-27.994-14.579-63.467-63.412c0,0,31.734,54.979,63.467,64.642V498.436z"/>
	<polyline fill="#AF7B26" points="429.572,614.586 429.572,445.558 432.218,445.558 432.218,614.586 	"/>
	<path fill="#AF7B26" d="M432.218,445.558l-2.307,0.181c0,0-9.634-39.388,4.452-72.714
		C434.363,373.025,424.649,409.248,432.218,445.558z"/>
	<path fill="#6CCE30" d="M429.572,551.132c0,0-42.095-51.995-63.467-58.318c0,0,33.029,56.21,63.467,64.642V551.132z"/>
	<path fill="#519B24" d="M429.572,556.225c0,0-27.994-14.578-63.467-63.411c0,0,31.734,54.979,63.467,64.642V556.225z"/>
	<path fill="#6CCE30" d="M439.788,493.342c0,0,42.095-51.995,63.466-58.318c0,0-33.029,56.21-63.466,64.642V493.342z"/>
	<path fill="#519B24" d="M439.788,498.436c0,0,27.995-14.579,63.466-63.412c0,0-31.732,54.979-63.466,64.642V498.436z"/>
	<path fill="#6CCE30" d="M439.788,551.132c0,0,42.095-51.995,63.466-58.318c0,0-33.029,56.21-63.466,64.642V551.132z"/>
	<path fill="#519B24" d="M439.788,556.225c0,0,27.995-14.578,63.466-63.411c0,0-31.732,54.979-63.466,64.642V556.225z"/>
	<path fill="#6CCE30" d="M570.748,493.117c0,0-42.094-51.993-63.466-58.316c0,0,33.028,56.207,63.466,64.64V493.117z"/>
	<polyline fill="#E29F31" points="570.748,612.961 570.748,443.933 580.962,443.933 580.962,612.961 	"/>
	<path fill="#E29F31" d="M580.962,445.338c0,0,7.936-31.063-0.023-61.664c-7.26-27.918-5.515,0-5.515,0l-0.208,60.259
		L580.962,445.338z"/>
	<path fill="#E29F31" d="M570.91,445.338c0,0-6.513-29.477,0.829-60.259c7.354-30.777,5.514,0,5.514,0l0.208,60.259H570.91z"/>
	<path fill="#519B24" d="M570.748,498.209c0,0-27.994-14.578-63.466-63.409c0,0,31.733,54.979,63.466,64.64V498.209z"/>
	<polyline fill="#AF7B26" points="570.748,614.361 570.748,445.334 573.396,445.334 573.396,614.361 	"/>
	<path fill="#AF7B26" d="M573.396,445.334l-2.309,0.181c0,0-9.633-39.389,4.453-72.715
		C575.54,372.799,565.824,409.022,573.396,445.334z"/>
	<path fill="#6CCE30" d="M570.748,550.906c0,0-42.094-51.992-63.466-58.316c0,0,33.028,56.208,63.466,64.64V550.906z"/>
	<path fill="#519B24" d="M570.748,556c0,0-27.994-14.579-63.466-63.41c0,0,31.733,54.98,63.466,64.64V556z"/>
	<path fill="#6CCE30" d="M580.962,493.117c0,0,42.096-51.993,63.467-58.316c0,0-33.027,56.207-63.467,64.64V493.117z"/>
	<path fill="#519B24" d="M580.962,498.209c0,0,27.994-14.578,63.467-63.409c0,0-31.732,54.979-63.467,64.64V498.209z"/>
	<path fill="#6CCE30" d="M580.962,550.906c0,0,42.096-51.992,63.467-58.316c0,0-33.027,56.208-63.467,64.64V550.906z"/>
	<path fill="#519B24" d="M580.962,556c0,0,27.994-14.579,63.467-63.41c0,0-31.732,54.98-63.467,64.64V556z"/>
</g>
<g id="Camada_2">
	<polygon fill="#91613C" points="329.905,673.015 329.905,633.109 362.088,603.5 402.423,638.257 436.753,603.5 472.799,634.396 
		506.27,603.5 506.27,673.015 	"/>
	<polygon fill="#91613C" points="682.634,673.015 682.634,625.384 650.451,604.783 609.255,634.396 575.786,603.5 539.74,634.396 
		506.27,603.5 497.275,673.015 	"/>
</g>
<g id="Camada_4">
</g>
<path fill="#6CCE30" d="M581.156,591.227c0,0,41.839-47.631,63.079-53.424c0,0-32.826,51.492-63.079,59.217V591.227z"/>
<path fill="#519B24" d="M581.156,595.893c0,0,27.823-13.355,63.079-58.09c0,0-31.539,50.367-63.079,59.217V595.893z"/>
<path fill="#6CCE30" d="M570.554,597.02c-30.253-7.725-63.079-59.217-63.079-59.217c21.24,5.793,63.079,53.424,63.079,53.424V597.02
	z"/>
<path fill="#519B24" d="M570.554,597.02c-31.54-8.85-63.079-59.217-63.079-59.217c35.256,44.734,63.079,58.09,63.079,58.09V597.02z"
	/>
<path fill="#6CCE30" d="M439.695,591.227c0,0,41.839-47.631,63.079-53.424c0,0-32.826,51.492-63.079,59.217V591.227z"/>
<path fill="#519B24" d="M439.695,595.893c0,0,27.823-13.355,63.079-58.09c0,0-31.539,50.367-63.079,59.217V595.893z"/>
<path fill="#6CCE30" d="M429.378,597.02c-30.253-7.725-63.079-59.217-63.079-59.217c21.24,5.793,63.079,53.424,63.079,53.424V597.02
	z"/>
<path fill="#519B24" d="M429.378,597.02c-31.54-8.85-63.079-59.217-63.079-59.217c35.256,44.734,63.079,58.09,63.079,58.09V597.02z"
	/>
</svg>
