<?xml version="1.0" encoding="utf-8"?>
<!-- Generator: Adobe Illustrator 15.0.0, SVG Export Plug-In . SVG Version: 6.00 Build 0)  -->
<!DOCTYPE svg PUBLIC "-//W3C//DTD SVG 1.1//EN" "http://www.w3.org/Graphics/SVG/1.1/DTD/svg11.dtd">
<svg version="1.1" id="Camada_1" xmlns="http://www.w3.org/2000/svg" xmlns:xlink="http://www.w3.org/1999/xlink" x="0px" y="0px"
	 width="1190.55px" height="841.89px" viewBox="0 0 1190.55 841.89" enable-background="new 0 0 1190.55 841.89"
	 xml:space="preserve">
<g id="Camada_1_1_" display="none">
	
		<image display="inline" overflow="visible" enable-background="new    " width="450" height="470" xlink:href="../../../../Desktop/Godot/Sprites MedievalLands/e332c2014cbf77d95ff2f719146325e9.jpg"  transform="matrix(0.8556 0 0 0.8166 416 186.8887)">
	</image>
</g>
<g id="Camada_3">
	<path fill="#6CCE30" d="M431.589,499.226c0,0-41.838-47.633-63.079-53.426c0,0,32.827,51.494,63.079,59.219V499.226z"/>
	<polyline fill="#E29F31" points="431.589,609.015 431.589,454.169 441.742,454.169 441.742,609.015 	"/>
	<path fill="#E29F31" d="M441.742,455.457c0,0,7.885-28.457-0.025-56.492c-7.216-25.576-5.48,0-5.48,0l-0.206,55.205
		L441.742,455.457z"/>
	<path fill="#E29F31" d="M431.75,455.457c0,0-6.472-27.004,0.825-55.205c7.307-28.196,5.48,0,5.48,0l0.206,55.205H431.75
		L431.75,455.457z"/>
	<path fill="#519B24" d="M431.589,503.892c0,0-27.823-13.355-63.079-58.092c0,0,31.54,50.367,63.079,59.219V503.892z"/>
	<polyline fill="#AF7B26" points="431.589,610.298 431.589,455.451 434.219,455.451 434.219,610.298 	"/>
	<path fill="#AF7B26" d="M434.219,455.451l-2.293,0.166c0,0-9.575-36.084,4.425-66.614
		C436.351,389.003,426.696,422.187,434.219,455.451z"/>
	<path fill="#6CCE30" d="M431.589,552.167c0,0-41.838-47.633-63.079-53.426c0,0,32.827,51.494,63.079,59.219V552.167z"/>
	<path fill="#519B24" d="M431.589,556.833c0,0-27.823-13.355-63.079-58.092c0,0,31.54,50.367,63.079,59.219V556.833z"/>
	<path fill="#6CCE30" d="M441.742,499.226c0,0,41.838-47.633,63.079-53.426c0,0-32.827,51.494-63.079,59.219V499.226z"/>
	<path fill="#519B24" d="M441.742,503.892c0,0,27.824-13.355,63.079-58.092c0,0-31.539,50.367-63.079,59.219V503.892z"/>
	<path fill="#6CCE30" d="M441.742,552.167c0,0,41.838-47.633,63.079-53.426c0,0-32.827,51.494-63.079,59.219V552.167z"/>
	<path fill="#519B24" d="M441.742,556.833c0,0,27.824-13.355,63.079-58.092c0,0-31.539,50.367-63.079,59.219V556.833z"/>
	<path fill="#6CCE30" d="M571.903,499.019c0,0-41.838-47.631-63.079-53.424c0,0,32.827,51.492,63.079,59.217V499.019z"/>
	<polyline fill="#E29F31" points="571.903,608.81 571.903,453.962 582.056,453.962 582.056,608.81 	"/>
	<path fill="#E29F31" d="M582.056,455.25c0,0,7.886-28.457-0.024-56.491c-7.216-25.576-5.481,0-5.481,0l-0.206,55.204
		L582.056,455.25z"/>
	<path fill="#E29F31" d="M572.064,455.25c0,0-6.473-27.004,0.824-55.204c7.308-28.195,5.48,0,5.48,0l0.207,55.204H572.064z"/>
	<path fill="#519B24" d="M571.903,503.685c0,0-27.823-13.355-63.079-58.09c0,0,31.54,50.367,63.079,59.217V503.685z"/>
	<polyline fill="#AF7B26" points="571.903,610.091 571.903,455.246 574.534,455.246 574.534,610.091 	"/>
	<path fill="#AF7B26" d="M574.534,455.246l-2.294,0.166c0,0-9.574-36.085,4.426-66.615
		C576.666,388.796,567.01,421.98,574.534,455.246z"/>
	<path fill="#6CCE30" d="M571.903,551.96c0,0-41.838-47.631-63.079-53.424c0,0,32.827,51.492,63.079,59.217V551.96z"/>
	<path fill="#519B24" d="M571.903,556.626c0,0-27.823-13.355-63.079-58.09c0,0,31.54,50.367,63.079,59.217V556.626z"/>
	<path fill="#6CCE30" d="M582.056,499.019c0,0,41.838-47.631,63.079-53.424c0,0-32.826,51.492-63.079,59.217V499.019z"/>
	<path fill="#519B24" d="M582.056,503.685c0,0,27.823-13.355,63.079-58.09c0,0-31.539,50.367-63.079,59.217V503.685z"/>
	<path fill="#6CCE30" d="M582.056,551.96c0,0,41.838-47.631,63.079-53.424c0,0-32.826,51.492-63.079,59.217V551.96z"/>
	<path fill="#519B24" d="M582.056,556.626c0,0,27.823-13.355,63.079-58.09c0,0-31.539,50.367-63.079,59.217V556.626z"/>
</g>
<g id="Camada_2">
	<polygon fill="#91613C" points="329.905,673.015 329.905,633.109 362.088,603.5 402.423,638.257 436.753,603.5 472.799,634.396 
		506.27,603.5 506.27,673.015 	"/>
	<polygon fill="#91613C" points="682.634,673.015 682.634,625.384 650.451,604.783 609.255,634.396 575.786,603.5 539.74,634.396 
		506.27,603.5 497.275,673.015 	"/>
</g>
<g id="Camada_4">
</g>
</svg>
