<?xml version="1.0" encoding="utf-8"?>
<!-- Generator: Adobe Illustrator 15.0.0, SVG Export Plug-In . SVG Version: 6.00 Build 0)  -->
<!DOCTYPE svg PUBLIC "-//W3C//DTD SVG 1.1//EN" "http://www.w3.org/Graphics/SVG/1.1/DTD/svg11.dtd">
<svg version="1.1" id="Camada_1" xmlns="http://www.w3.org/2000/svg" xmlns:xlink="http://www.w3.org/1999/xlink" x="0px" y="0px"
	 width="1190.55px" height="841.89px" viewBox="0 0 1190.55 841.89" enable-background="new 0 0 1190.55 841.89"
	 xml:space="preserve">
<g id="Base" display="none">
	
		<image display="inline" overflow="visible" enable-background="new    " width="450" height="450" xlink:href="388AA36C.jpeg"  transform="matrix(0.72 0 0 0.72 433 258.8896)">
	</image>
</g>
<g id="Castelo_x5F_1" display="none">
	<g id="Mur_x5F_castelo_x5F_1" display="inline">
		<polygon fill="#948D81" points="1142.72,841.89 1142.72,219.705 1007.753,219.705 1007.753,324.303 889.83,324.98 889.83,219.705 
			758.443,219.705 758.443,329.565 638.816,329.056 638.816,219.705 521.23,219.705 521.23,329.056 403.135,329.565 
			403.135,219.705 289.133,219.705 289.133,336.698 159.279,336.698 159.279,223.094 47.83,223.094 47.83,841.89 		"/>
		<path fill="#D3CEC4" d="M1097.947,844.093V447.027c-53.512-66.972-107.023-1.533-107.023-1.533v398.6"/>
		<rect x="1040.474" y="282.409" fill="#C6C2B8" width="57.604" height="43.624"/>
		<rect x="800.619" y="282.409" fill="#C6C2B8" width="57.6" height="43.624"/>
		<rect x="552.271" y="282.409" fill="#C6C2B8" width="57.601" height="43.624"/>
		<rect x="320.197" y="282.409" fill="#C6C2B8" width="57.601" height="43.624"/>
		<rect x="72.953" y="280.708" fill="#C6C2B8" width="57.601" height="43.622"/>
		<path fill="#C6C2B8" d="M1098.083,844.093l-0.137-397.066c-18.836-34.252-55.531-30.051-55.531-30.051v427.118"/>
		<path fill="#D3CEC4" d="M941.437,844.093V447.027c-53.512-66.972-107.021-1.533-107.021-1.533v398.6"/>
		<path fill="#C6C2B8" d="M941.576,844.093l-0.139-397.066c-18.834-34.252-55.529-30.051-55.529-30.051v427.118"/>
		<path fill="#D3CEC4" d="M348.858,844.093V447.027c-53.512-66.972-107.024-1.533-107.024-1.533v398.6"/>
		<path fill="#C6C2B8" d="M348.994,844.093l-0.136-397.066c-18.836-34.252-55.534-30.051-55.534-30.051v427.118"/>
		<path fill="#D3CEC4" d="M208.772,844.093V447.027c-53.512-66.972-107.023-1.533-107.023-1.533v398.6"/>
		<path fill="#C6C2B8" d="M208.908,844.093l-0.136-397.066c-18.835-34.252-55.532-30.051-55.532-30.051v427.118"/>
		<polygon fill="#D3CEC4" points="800.619,326.032 800.619,282.409 858.218,326.032 		"/>
		<polygon fill="#D3CEC4" points="1040.474,326.032 1040.474,282.409 1098.076,326.032 		"/>
		<polygon fill="#D3CEC4" points="552.271,326.032 552.271,282.409 609.873,326.032 		"/>
		<polygon fill="#D3CEC4" points="320.197,326.032 320.197,282.409 377.798,326.032 		"/>
		<rect x="380.434" y="364.079" fill="#D3CEC4" width="27.511" height="13.036"/>
		<rect x="403.704" y="380.438" fill="#D3CEC4" width="35.746" height="13.036"/>
		<rect x="380.434" y="397.309" fill="#D3CEC4" width="27.511" height="13.036"/>
		<rect x="349.002" y="380.438" fill="#D3CEC4" width="35.746" height="13.036"/>
		<rect x="782.455" y="363.824" fill="#D3CEC4" width="27.51" height="13.036"/>
		<rect x="805.722" y="380.183" fill="#D3CEC4" width="35.746" height="13.036"/>
		<rect x="782.455" y="397.053" fill="#D3CEC4" width="27.51" height="13.036"/>
		<rect x="751.021" y="380.183" fill="#D3CEC4" width="35.746" height="13.036"/>
		<rect x="950.824" y="363.824" fill="#D3CEC4" width="27.512" height="13.036"/>
		<rect x="974.095" y="380.183" fill="#D3CEC4" width="35.742" height="13.036"/>
		<rect x="950.824" y="397.053" fill="#D3CEC4" width="27.512" height="13.036"/>
		<rect x="919.392" y="380.183" fill="#D3CEC4" width="35.744" height="13.036"/>
		<rect x="212.511" y="363.824" fill="#D3CEC4" width="27.51" height="13.036"/>
		<rect x="235.78" y="380.183" fill="#D3CEC4" width="35.746" height="13.036"/>
		<rect x="212.511" y="397.053" fill="#D3CEC4" width="27.51" height="13.036"/>
		<rect x="181.078" y="380.183" fill="#D3CEC4" width="35.746" height="13.036"/>
		<polygon fill="#D3CEC4" points="72.953,324.331 72.953,280.708 130.553,324.331 		"/>
	</g>
	<g id="Castelo_x5F_Muralha_x7C__x5F_1" display="inline">
		<path fill="#4E2910" d="M581.827,412.103c-0.384-2.867,1.246-5.639-1.205-6.519c-14.906-5.368-42.777,3.235-56.907,7.309
			c-26.488,7.629-49.598,20.673-72.507,35.73c-4.959,3.26-5.617,11.008,0,14.123c-3.611-2.004-11.646,10.936-13.412,14.883
			c-3.371,7.516-11.127,60.035-3.419,56.281c5.138-2.5,20.634-49.172,23.469-54.311c6.663-12.068,15.066-19.449,26.929-26.313
			c21.879-12.652,51.923-15.279,76.898-18.564c2.302-0.303,4.011-1.422,5.288-2.852c4.034,4.225,13.771,2.34,14.651-5.584
			C582.163,421.313,582.497,417.04,581.827,412.103z"/>
		<path display="none" fill="#DBAC7B" d="M534.146,406.028c-0.294-0.14-0.633-0.185-0.982-0.084
			c-11.258,3.189-4.345,16.825-6.641,25.079c-0.293,1.055,0.744,2.217,1.845,1.846c1.972-0.664,4.416,0.111,6.444,0.115
			c1.103,0.002,1.918-1.287,1.296-2.258c-0.356-0.555-0.008-1.816,0.017-2.461c0.086-2.313-0.009-4.646,0.042-6.963
			c0.094-4.275-1.086-9.514,0.216-13.638C536.841,406.218,535.174,405.429,534.146,406.028z"/>
		<g>
			<g>
				<path fill="#9A5A30" d="M430.43,840.5c0,0-2.762-209.654,0-279.461c1.967-49.822,10.387-131.178,153.921-131.178
					c141.11,0,155.231,76.045,155.231,123.582c0,71.764,0,287.057,0,287.057H430.43"/>
			</g>
			<line fill="none" x1="584.391" y1="840.5" x2="584.351" y2="429.861"/>
		</g>
		<path fill="#331603" d="M749.734,499.394c-7.148-22.094-19.434-42.223-36.002-58.631c-18.35-18.174-42.662-22.293-66.174-29.739
			c-4.385-0.902-7.363-3.468-10.479-1.862c-9.322-2.468-19.289-1.773-28.115-4.785c-20.02-6.83-28.55,24.781-8.693,31.552
			c18.668,6.367,39.156,11.59,58.537,15.338c2.898,0.559,5.473,0.393,7.82-0.15c8.363,2.984,16.398,6.756,23.971,12.777
			c12.828,10.219,22.662,28.982,27.582,44.191C724.646,528.082,756.244,519.525,749.734,499.394z"/>
		<path fill="#4D2D18" d="M747.443,610.634c2.938-34.689,6.207-65.508-3.26-91.174c2.516-6.246-2.898-12.557-6.414-18.963
			c-11.271-20.545-27.336-35.205-47.664-48.111c-4.801-3.045-6.463-4.568-14.604-6.926c-6.383-3.451-11.99-3.811-19.363-6.902
			c-7.061-2.947-19.314-6.645-29.795-7.668c-41.697-8.18-37.311,1.453-40.131,23.621c-15.209,119.674,5.959,244.535,1.022,364.994
			c-0.521,12.688,11.566,22.463,24.539,22.814c38.799,0.99,75.197,2.857,114.006,0.939c7.893-0.396,19.762-3.289,21.191-11.309
			C758.808,765.492,741.628,679.285,747.443,610.634z"/>
		<g>
			<g>
				<path fill="none" stroke="#5D5D5C" stroke-width="12" stroke-miterlimit="10" d="M425.886,844.093
					c0,0-2.931-230.15-0.032-304.119c2.068-52.785,10.903-138.991,161.549-138.991c148.089,0,162.916,80.575,162.916,130.938
					c0,76.039,0,304.152,0,304.152H425.854"/>
			</g>
			
				<line fill="none" stroke="#5D5D5C" stroke-width="12" stroke-miterlimit="10" x1="587.443" y1="836.074" x2="587.402" y2="400.983"/>
		</g>
		<path fill="#4E2910" d="M552.295,628.482c0,17.135-13.884,31.018-31.01,31.018l0,0c-17.134,0-31.019-13.883-31.019-31.018v-13.291
			c0-17.137,13.885-31.02,31.019-31.02l0,0c17.126,0,31.01,13.883,31.01,31.02V628.482z"/>
		<path fill="#F8E2C9" d="M552.295,621.962c0,14.619-13.866,26.457-31.01,26.457l0,0c-17.126,0-31.019-11.838-31.019-26.457v-11.334
			c0-14.617,13.893-26.457,31.019-26.457l0,0c17.144,0,31.01,11.84,31.01,26.457V621.962z"/>
		<path fill="#1E0C02" d="M689.818,628.482c0,17.135-13.885,31.018-31.012,31.018l0,0c-17.135,0-31.018-13.883-31.018-31.018
			v-13.291c0-17.137,13.883-31.02,31.018-31.02l0,0c17.127,0,31.012,13.883,31.012,31.02V628.482z"/>
		<path fill="#F8E2C9" d="M689.818,621.962c0,14.619-13.867,26.457-31.012,26.457l0,0c-17.125,0-31.018-11.838-31.018-26.457
			v-11.334c0-14.617,13.893-26.457,31.018-26.457l0,0c17.145,0,31.012,11.84,31.012,26.457V621.962z"/>
		<rect x="431.625" y="826.617" fill="#9A5A30" width="149.875" height="17.477"/>
		<rect x="593.375" y="826.617" fill="#4D2D18" width="150.792" height="17.477"/>
	</g>
</g>
<g id="Casa_1_">
	<rect x="389.392" y="462.223" fill="#DBDBC5" width="429.56" height="379.667"/>
	<rect x="389.392" y="657.741" fill="#676554" width="429.56" height="14.604"/>
	<rect x="389.392" y="462.223" fill="#A02222" width="429.56" height="40.956"/>
	<polygon fill="#C1C0B0" points="389.392,503.179 818.952,503.179 818.952,503.179 389.392,637.055 	"/>
	<rect x="389.392" y="622.453" fill="#676554" width="429.56" height="14.603"/>
	<polygon fill="none" stroke="#1D1D1B" stroke-width="0.5" stroke-miterlimit="10" points="519.656,505.119 591.014,620.342 
		615.239,620.342 684.125,505.119 	"/>
	
		<line fill="none" stroke="#1D1D1B" stroke-width="0.5" stroke-miterlimit="10" x1="601.89" y1="505.119" x2="601.89" y2="620.342"/>
	<rect x="777.217" y="677.08" fill="#746868" width="15.268" height="7.225"/>
	<rect x="790.126" y="686.149" fill="#746868" width="19.813" height="7.225"/>
	<rect x="777.217" y="695.503" fill="#746868" width="15.268" height="7.225"/>
	<rect x="759.781" y="686.149" fill="#746868" width="19.831" height="7.225"/>
	<rect x="419.149" y="677.08" fill="#746868" width="15.268" height="7.225"/>
	<rect x="432.059" y="686.149" fill="#746868" width="19.813" height="7.225"/>
	<rect x="419.149" y="695.503" fill="#746868" width="15.268" height="7.225"/>
	<rect x="401.713" y="686.149" fill="#746868" width="19.831" height="7.225"/>
	<rect x="663.894" y="676.947" fill="#746868" width="15.25" height="7.225"/>
	<rect x="676.786" y="686.015" fill="#746868" width="19.813" height="7.206"/>
	<rect x="663.894" y="695.351" fill="#746868" width="15.25" height="7.244"/>
	<rect x="646.458" y="686.015" fill="#746868" width="19.813" height="7.206"/>
	<rect x="546.009" y="680.406" fill="#746868" width="15.268" height="7.206"/>
	<rect x="558.919" y="689.475" fill="#746868" width="19.812" height="7.207"/>
	<rect x="546.009" y="698.832" fill="#746868" width="15.268" height="7.225"/>
	<rect x="528.574" y="689.475" fill="#746868" width="19.831" height="7.207"/>
	<rect x="389.392" y="414.156" fill="#DBDBC5" width="29.396" height="48.067"/>
	<rect x="463.85" y="414.156" fill="#DBDBC5" width="29.396" height="48.067"/>
	<rect x="790.126" y="414.156" fill="#DBDBC5" width="29.396" height="48.067"/>
	<rect x="708.938" y="414.156" fill="#DBDBC5" width="29.396" height="48.067"/>
	<rect x="538.936" y="414.156" fill="#DBDBC5" width="29.395" height="48.067"/>
	<rect x="631.761" y="414.156" fill="#DBDBC5" width="29.395" height="48.067"/>
	<rect x="389.392" y="502.38" fill="#702222" width="429.56" height="3.423"/>
</g>
<g id="Portas">
	<path fill="#8C8D79" d="M682.262,841.89V715.334c0,0,38.939-57.193,82.748,0V841.89H682.262z"/>
	<path fill="#7F806E" d="M682.262,715.334c0,0,19.869,55.977,82.748,94.917v31.639h-82.748V715.334z"/>
	<path fill="#8C8D79" d="M569.909,841.89V715.334c0,0,38.94-57.193,82.748,0V841.89H569.909z"/>
	<path fill="#7F806E" d="M569.909,715.334c0,0,19.87,55.977,82.748,94.917v31.639h-82.748V715.334z"/>
	<path fill="#8C8D79" d="M451.872,841.89V715.334c0,0,38.94-57.193,82.749,0V841.89H451.872z"/>
	<path fill="#7F806E" d="M451.872,715.334c0,0,19.888,55.977,82.749,94.917v31.639h-82.749V715.334z"/>
	<path fill="#6D1717" d="M429.303,592.486v-58.714h60.254v58.714C478.89,603.134,439.95,603.134,429.303,592.486z"/>
	<path fill="#A02222" d="M489.538,533.772v58.714c-40.86-18.767-60.235-58.714-60.235-58.714
		C437.307,521.013,478.89,523.125,489.538,533.772z"/>
	<path fill="#6D1717" d="M712.931,589.387v-58.715h60.235v58.715C762.519,600.036,723.579,600.036,712.931,589.387z"/>
	<path fill="#A02222" d="M773.167,530.672v58.715c-40.86-18.768-60.235-58.715-60.235-58.715
		C720.936,517.914,762.519,520.025,773.167,530.672z"/>
</g>
<g id="Bandeiras">
	<rect x="597.442" y="159.828" fill="#272727" width="8.917" height="302.967"/>
	<polygon fill="#A02222" points="606.359,363.561 640.64,392.006 640.64,209.777 563.16,209.777 563.16,392.006 597.442,363.712 	
		"/>
	<path fill="#A02222" d="M640.64,336.028h-77.48v-91.475c0,0,38.75-28.996,77.48,0V336.028z"/>
	<polygon fill="#5F5F51" points="594.304,345.973 606.911,345.973 606.911,320.228 623.262,322.547 621.417,311.292 
		578.769,311.292 576.621,323.081 594.304,320.228 	"/>
	<polyline fill="#DFDEBD" points="594.836,311.292 592.973,254.973 600.92,240.503 608.887,253.908 606.378,311.292 	"/>
</g>
<g id="CASA_x5F_1" display="none">
	<g id="Casa" display="inline">
		<polygon fill="#B3B56E" points="875.314,841.828 875.314,489.701 312.829,489.701 312.829,841.89 		"/>
		<path fill="#A6A866" d="M407.256,489.701c0,0,113.148,238.697,468.058,352.127V489.701H407.256z"/>
		<rect x="312.829" y="534.47" fill="#4E461D" width="565.196" height="17.107"/>
		<rect x="360.246" y="768.324" fill="#D3CEC4" width="21.902" height="10.379"/>
		<rect x="378.765" y="781.347" fill="#D3CEC4" width="28.465" height="10.379"/>
		<rect x="360.246" y="794.779" fill="#D3CEC4" width="21.902" height="10.379"/>
		<rect x="335.215" y="781.347" fill="#D3CEC4" width="28.464" height="10.379"/>
		<rect x="583.096" y="768.121" fill="#D3CEC4" width="21.902" height="10.379"/>
		<rect x="601.615" y="781.144" fill="#D3CEC4" width="28.465" height="10.377"/>
		<rect x="583.096" y="794.576" fill="#D3CEC4" width="21.902" height="10.379"/>
		<rect x="558.064" y="781.144" fill="#D3CEC4" width="28.466" height="10.377"/>
	</g>
	<g id="Telhado" display="inline">
		<polygon fill="#FAFFEB" points="312.829,489.701 875.314,489.701 601.806,30.594 		"/>
		<polygon fill="#CBCDB6" points="601.806,30.594 600.8,489.701 875.314,489.701 		"/>
		<polygon fill="none" stroke="#1D1D1B" stroke-width="3" stroke-miterlimit="10" points="427.95,303.938 576.333,472.265 
			626.767,472.265 769.998,303.938 		"/>
		
			<rect x="427.059" y="303.938" fill="none" stroke="#1D1D1B" stroke-width="3" stroke-miterlimit="10" width="344.064" height="168.656"/>
		<line fill="none" stroke="#1D1D1B" stroke-width="3" stroke-miterlimit="10" x1="600.8" y1="303.938" x2="600.8" y2="472.265"/>
		<polygon fill="#4E461D" points="323.603,472.593 865.015,472.593 875.314,489.701 312.829,489.701 		"/>
		<polygon fill="#94D5CD" points="601.806,2.714 714.14,95.168 669.101,95.168 775.458,193.932 738.052,193.932 827.556,278.055 
			792.82,278.055 870.964,359.991 843.835,359.991 926.318,444.65 893.224,444.65 980.591,543.019 939.623,563.371 		"/>
		<polygon fill="#2B4336" points="601.806,30.594 601.806,2.714 939.623,563.371 926.189,575.375 		"/>
		<polygon fill="#94D5CD" points="601.806,2.714 489.472,95.168 534.509,95.168 428.152,193.932 465.559,193.932 376.055,278.055 
			410.791,278.055 332.646,359.991 359.775,359.991 277.292,444.65 310.387,444.65 223.02,543.019 263.988,563.371 		"/>
		<polygon fill="#2B4336" points="601.806,30.594 601.806,2.714 263.988,563.371 277.419,575.375 		"/>
	</g>
	<g id="Porta" display="inline">
		<g id="Camada_4">
			<polyline fill="#F3F7FB" points="832.173,841.89 832.173,672.585 677.242,672.585 677.242,841.89 			"/>
		</g>
		<g id="Camada_6">
			<polygon fill="#D4D4B3" points="755.656,841.828 754.714,672.585 832.173,672.585 832.173,841.535 			"/>
		</g>
		<g id="Camada_8">
			<polygon fill="#D4D4B3" points="677.242,694.833 754.841,694.833 754.714,672.585 677.242,672.585 			"/>
			<polygon fill="#A1A188" points="832.173,672.585 754.714,672.585 754.841,694.833 832.173,694.833 			"/>
			<rect x="677.242" y="694.833" fill="#D4D4B3" width="6.777" height="146.994"/>
			<polygon fill="#A1A188" points="832.173,693 832.173,841.828 825.392,841.828 825.392,694.017 			"/>
		</g>
		<g id="Camada_7">
			<path fill="#2E2E2E" d="M737.847,772.318c0,6.207-4.322,11.242-9.664,11.242c-5.344,0-9.668-5.035-9.668-11.242
				s4.324-11.244,9.668-11.244C733.523,761.074,737.847,766.111,737.847,772.318z"/>
		</g>
		<path fill="#AF8D42" d="M754.841,591.185h70.551c0,0,32.422,25.643,32.83,81.4H754.841V591.185z"/>
		<path fill="#BC9D59" d="M754.841,591.185h-70.553c0,0-32.422,25.643-32.828,81.4h103.381V591.185z"/>
		<path fill="#FF8F35" stroke="#F7E6A4" stroke-width="0.5" stroke-miterlimit="10" d="M498.833,739.603h72.448V630.119
			c0,0-6.513-24.828-36.226-24.828c0,0-36.223,2.316-36.223,26.596C498.833,656.167,498.833,739.603,498.833,739.603z"/>
		<path fill="#CC722A" d="M501.681,683.716c0,0,7.326,14.359,66.344,14.359v37.863h-66.344V683.716L501.681,683.716z"/>
		<path fill="#CC722A" d="M568.024,630.728c0,0-5.087-20.35-31.138-22.385c0,0-32.356,1.221-35.206,22.385H568.024z"/>
		<path fill="#FF8F35" stroke="#F7E6A4" stroke-width="0.5" stroke-miterlimit="10" d="M388.533,739.603h72.447V630.119
			c0,0-6.512-24.828-36.223-24.828c0,0-36.225,2.316-36.225,26.596C388.533,656.167,388.533,739.603,388.533,739.603z"/>
		<path fill="#CC722A" d="M391.381,683.716c0,0,7.327,14.359,66.343,14.359v37.863h-66.343V683.716z"/>
		<path fill="#CC722A" d="M457.725,630.728c0,0-5.088-20.35-31.137-22.385c0,0-32.357,1.221-35.206,22.385H457.725z"/>
		<rect x="574.956" y="167.616" fill="#494840" width="51.284" height="74.076"/>
		<path fill="#639A8C" d="M567.617,167.616c0,0,26.861-47.48,34.187-47.48v47.48H567.617z"/>
		<path fill="#639A8C" d="M635.994,167.616c0,0-27.053-47.48-34.441-47.48v47.48H635.994z"/>
	</g>
</g>
</svg>
