<?xml version="1.0" encoding="utf-8"?>
<!-- Generator: Adobe Illustrator 15.0.0, SVG Export Plug-In . SVG Version: 6.00 Build 0)  -->
<!DOCTYPE svg PUBLIC "-//W3C//DTD SVG 1.1//EN" "http://www.w3.org/Graphics/SVG/1.1/DTD/svg11.dtd">
<svg version="1.1" id="Camada_1" xmlns="http://www.w3.org/2000/svg" xmlns:xlink="http://www.w3.org/1999/xlink" x="0px" y="0px"
	 width="1190.55px" height="841.89px" viewBox="0 0 1190.55 841.89" enable-background="new 0 0 1190.55 841.89"
	 xml:space="preserve">
<g id="Camada_1_2_">
	<g id="Camada_1_1_" display="none">
		
			<image display="inline" overflow="visible" enable-background="new    " width="880" height="767" xlink:href="9ECB5C31.png"  transform="matrix(1.013 0 0 1.013 59.8945 -24.8965)">
		</image>
	</g>
	<g id="Camada_7">
		<polygon fill="#3F290A" points="289.593,446.779 920.041,446.166 933.183,391.681 920.041,336.691 290.552,337.426 
			264.499,392.099 		"/>
	</g>
	<g id="Camada_5">
		<polygon fill="#3F290A" points="296.927,438.214 923.875,438.214 940.001,392.667 924.625,347.625 297.886,348.229 
			271.833,393.219 		"/>
	</g>
	<g id="borda">
		<g id="Camada_4">
			<path fill="#3F290A" d="M975.318,374.307l11.016,12.193l12.334-20.108c0,0,16.168-3.059,16.334,18.608s0,0.833,0,0.833
				s24.662-2.037,24.828,7.963l-15.705,0.196c0,0-3.563-3.59-4.457-3.618c-1.031-0.031-3.33,3.78-3.33,3.78l-11.979,0.021
				c0,0,1.703-12.826-1.689-13.631c-4.107-0.974-9.32,14.085-9.32,14.085l-10.512,0.218l-14.014-16.454L975.318,374.307z"/>
			<path fill="#3F290A" d="M975.318,414.05l11.016-12.191l12.334,20.106c0,0,16.168,3.063,16.334-18.606
				c0.166-21.667,0-0.833,0-0.833s24.666,1.144,24.832-8.856l-15.709,0.326c0,0-3.479,4.229-4.373,4.257
				c-1.031,0.031-3.424-4.234-3.424-4.234l-11.971,0.163c0,0,1.705,12.826-1.689,13.631c-4.109,0.976-9.322-14.085-9.322-14.085
				l-10.512-0.218l-14.012,16.454L975.318,414.05z"/>
		</g>
		<g id="Camada_3">
			<path fill="#3F290A" d="M783,238.75"/>
			<path fill="#3F290A" d="M973.667,392.667c0,0-51.5-58.667-78.666-16.167c0,0,9.832,37.167,49.666-1.667
				c0,0,36.334-30.667,41.666-29.167c5.334,1.5,7.168,0.167,0-9.333c-7.166-9.5-44,10.5-44,10.667s-8.332-0.833-15-5.333
				L895.001,342v4.875l32.373,0.75c0,0,9.875,6.5,11.875,10.625s27.375-12.375,27.375-12.375L929.75,379c0,0-18,13-24.625-1.625
				s32.625-7.5,32.625-7.5l28,22.792H973.667z"/>
			<path fill="#3F290A" d="M973.667,392.667c0,0-51.5,58.667-78.666,16.167c0,0,9.832-37.167,49.666,1.667
				c0,0,36.334,30.667,41.666,29.167c5.334-1.5,7.168-0.166,0,9.334c-7.166,9.5-44-10.5-44-10.666c0-0.168-8.332,0.832-15,5.332
				l-32.332-0.332v-4.5l32.373-1.125c0,0,9.875-6.5,11.875-10.627c2-4.125,27.375,12.377,27.375,12.377l-36.875-33.125
				c0,0-18-13-24.625,1.625c-6.625,14.625,32.625,7.5,32.625,7.5l28-22.792L973.667,392.667L973.667,392.667z"/>
		</g>
		<g id="Camada_2">
			<path fill="#3F290A" d="M914.5,336.75c0,0,17-28.625,33.375-1.875c0,0-7.5,8.75-15.875-0.625s-19,42.584,48.5,79.083h4.668l3,4.5
				h-29.334l3.668-5.25h2.832C965.333,412.583,907.75,377,914.5,336.75z"/>
			<path fill="#3F290A" d="M915.332,447.476c0,0,17,28.625,33.375,1.875c0,0-7.5-8.75-15.875,0.625s-19-42.583,48.5-79.083H986
				l3-4.5h-29.334l3.668,5.25h2.832C966.166,371.642,908.582,407.226,915.332,447.476z"/>
		</g>
		<g id="Camada_8">
			<path fill="#3F290A" d="M231.806,374.666l-11.016,12.193l-12.333-20.108c0,0-16.168-3.059-16.334,18.608s0,0.833,0,0.833
				s-24.662-2.037-24.829,7.963L183,394.352c0,0,3.562-3.59,4.457-3.616c1.031-0.031,3.329,3.778,3.329,3.778l11.981,0.023
				c0,0-1.706-12.826,1.689-13.631c4.108-0.976,9.321,14.085,9.321,14.085l10.512,0.218l14.013-16.454L231.806,374.666z"/>
			<path fill="#3F290A" d="M231.806,414.409l-11.016-12.193l-12.333,20.108c0,0-16.168,3.059-16.334-18.608
				c-0.166-21.667,0-0.833,0-0.833s-24.666,1.146-24.833-8.854l15.71,0.324c0,0,3.478,4.23,4.373,4.259
				c1.031,0.029,3.423-4.234,3.423-4.234l11.972,0.163c0,0-1.706,12.826,1.689,13.63c4.108,0.975,9.321-14.084,9.321-14.084
				l10.512-0.218l14.013,16.454L231.806,414.409z"/>
			<path fill="#3F290A" d="M396.501,237.442"/>
			<path fill="#3F290A" d="M233.457,393.025c0,0,51.499-58.667,78.666-16.167c0,0-9.832,37.167-49.666-1.667
				c0,0-36.334-30.667-41.667-29.167s-7.167,0.167,0-9.333s44,10.5,44,10.667s8.333-0.833,15-5.333l32.333,0.333v5.75l-32.374-0.125
				c0,0-9.875,6.5-11.875,10.625s-27.375-12.375-27.375-12.375l36.875,33.125c0,0,18,13,24.625-1.625s-32.625-7.5-32.625-7.5
				l-28,22.792H233.457z"/>
			<path fill="#3F290A" d="M233.457,393.025c0,0,51.499,58.667,78.666,16.167c0,0-9.832-37.167-49.666,1.667
				c0,0-36.334,30.666-41.667,29.166s-7.167-0.166,0,9.334s44-10.5,44-10.666c0-0.168,8.333,0.832,15,5.332l32.333-0.332V439
				l-32.374-0.932c0,0-9.875-6.5-11.875-10.627c-2-4.125-27.375,12.377-27.375,12.377l36.875-33.125c0,0,18-13,24.625,1.625
				c6.625,14.625-32.625,7.5-32.625,7.5l-28-22.792L233.457,393.025L233.457,393.025z"/>
			<path fill="#3F290A" d="M292.624,337.109c0,0-17-28.625-33.375-1.875c0,0,7.5,8.75,15.875-0.625s19,42.584-48.5,79.084h-4.667
				l-3,4.5h29.333l-3.667-5.25h-2.833C241.79,412.943,299.374,377.359,292.624,337.109z"/>
			<path fill="#3F290A" d="M291.792,447.835c0,0-17,28.625-33.375,1.875c0,0,7.5-8.75,15.875,0.625s19-42.583-48.5-79.084h-4.667
				l-3-4.5h29.333l-3.667,5.25h-2.833C240.958,372.001,298.542,407.585,291.792,447.835z"/>
		</g>
	</g>
	<g id="Camada_7_1_" display="none">
		<polygon display="inline" fill="#3F290A" points="284.872,812.894 915.32,812.283 928.462,757.796 915.32,702.806 
			285.831,703.542 259.778,758.214 		"/>
	</g>
	<g id="Camada_5_1_" display="none">
		<polygon display="inline" fill="#3F290A" points="292.206,804.332 919.154,804.332 935.281,758.785 919.904,713.742 
			293.165,714.343 267.112,759.333 		"/>
	</g>
	<g id="borda_1_" display="none">
		<g id="Camada_4_2_" display="inline">
			<path fill="#3F290A" d="M970.597,740.421l11.016,12.193l12.334-20.107c0,0,16.168-3.059,16.334,18.607
				c0.166,21.668,0,0.834,0,0.834s24.662-2.037,24.828,7.963l-15.705,0.195c0,0-3.563-3.59-4.457-3.617
				c-1.031-0.031-3.33,3.779-3.33,3.779l-11.98,0.023c0,0,1.705-12.826-1.688-13.631c-4.107-0.977-9.32,14.084-9.32,14.084
				l-10.512,0.219l-14.016-16.455L970.597,740.421z"/>
			<path fill="#3F290A" d="M970.597,780.167l11.016-12.193l12.334,20.107c0,0,16.168,3.061,16.334-18.607
				c0.166-21.666,0-0.832,0-0.832s24.666,1.143,24.832-8.857l-15.709,0.326c0,0-3.479,4.23-4.373,4.258
				c-1.031,0.031-3.424-4.234-3.424-4.234l-11.971,0.162c0,0,1.705,12.826-1.689,13.631c-4.109,0.977-9.322-14.084-9.322-14.084
				l-10.512-0.219l-14.012,16.455L970.597,780.167z"/>
		</g>
		<g id="Camada_3_2_" display="inline">
			<path fill="#3F290A" d="M778.279,604.867"/>
			<path fill="#3F290A" d="M968.947,758.785c0,0-51.5-58.668-78.666-16.168c0,0,9.832,37.168,49.666-1.666
				c0,0,36.334-30.668,41.666-29.168c5.334,1.5,7.168,0.168,0-9.332c-7.166-9.5-44,10.5-44,10.666c0,0.168-8.332-0.832-15-5.332
				l-32.332,0.332v4.875l32.373,0.75c0,0,9.875,6.5,11.875,10.625s27.375-12.375,27.375-12.375l-36.875,33.125
				c0,0-18,13-24.625-1.625s32.625-7.5,32.625-7.5l28,22.793H968.947L968.947,758.785z"/>
			<path fill="#3F290A" d="M968.947,758.785c0,0-51.5,58.666-78.666,16.166c0,0,9.832-37.166,49.666,1.668
				c0,0,36.334,30.666,41.666,29.166c5.334-1.5,7.168-0.166,0,9.334c-7.166,9.5-44-10.5-44-10.666c0-0.168-8.332,0.832-15,5.332
				l-32.332-0.332v-4.5l32.373-1.125c0,0,9.875-6.5,11.875-10.627c2-4.125,27.375,12.377,27.375,12.377l-36.875-33.125
				c0,0-18-13-24.625,1.625c-6.625,14.623,32.625,7.5,32.625,7.5l28-22.793H968.947L968.947,758.785z"/>
		</g>
		<g id="Camada_2_2_" display="inline">
			<path fill="#3F290A" d="M909.779,702.867c0,0,17-28.625,33.375-1.875c0,0-7.5,8.75-15.875-0.625s-19,42.584,48.5,79.084h4.668
				l3,4.5h-29.334l3.668-5.25h2.832C960.613,778.701,903.029,743.117,909.779,702.867z"/>
			<path fill="#3F290A" d="M910.611,813.591c0,0,17,28.625,33.375,1.875c0,0-7.5-8.75-15.875,0.625s-19-42.584,48.5-79.084h4.668
				l3-4.5h-29.334l3.668,5.25h2.832C961.445,737.757,903.861,773.341,910.611,813.591z"/>
		</g>
		<g id="Camada_8_1_" display="inline">
			<path fill="#3F290A" d="M227.085,740.783l-11.016,12.191l-12.333-20.105c0,0-16.168-3.061-16.334,18.605
				c-0.166,21.668,0,0.834,0,0.834s-24.662-2.037-24.829,7.963l15.706,0.195c0,0,3.562-3.59,4.457-3.617
				c1.031-0.029,3.329,3.779,3.329,3.779l11.981,0.023c0,0-1.706-12.826,1.689-13.631c4.108-0.975,9.321,14.086,9.321,14.086
				l10.512,0.217l14.013-16.453L227.085,740.783z"/>
			<path fill="#3F290A" d="M227.085,780.527l-11.016-12.193l-12.333,20.107c0,0-16.168,3.059-16.334-18.607
				c-0.166-21.668,0-0.834,0-0.834s-24.666,1.145-24.833-8.855l15.71,0.326c0,0,3.478,4.23,4.373,4.258
				c1.031,0.029,3.423-4.234,3.423-4.234l11.972,0.162c0,0-1.706,12.826,1.689,13.631c4.108,0.975,9.321-14.084,9.321-14.084
				l10.512-0.219l14.013,16.455L227.085,780.527z"/>
			<path fill="#3F290A" d="M391.78,603.558"/>
			<path fill="#3F290A" d="M228.736,759.14c0,0,51.499-58.666,78.666-16.166c0,0-9.832,37.166-49.666-1.668
				c0,0-36.334-30.666-41.667-29.166s-7.167,0.166,0-9.334s44,10.5,44,10.668c0,0.166,8.333-0.834,15-5.334l32.333,0.334v5.75
				l-32.374-0.125c0,0-9.875,6.5-11.875,10.625s-27.375-12.375-27.375-12.375l36.875,33.125c0,0,18,13,24.625-1.625
				s-32.625-7.5-32.625-7.5l-28,22.791H228.736z"/>
			<path fill="#3F290A" d="M228.736,759.14c0,0,51.499,58.668,78.666,16.168c0,0-9.832-37.168-49.666,1.666
				c0,0-36.334,30.666-41.667,29.166s-7.167-0.166,0,9.334s44-10.5,44-10.666c0-0.168,8.333,0.832,15,5.332l32.333-0.332v-4.691
				l-32.374-0.934c0,0-9.875-6.5-11.875-10.627c-2-4.125-27.375,12.377-27.375,12.377l36.875-33.125c0,0,18-13,24.625,1.625
				c6.625,14.623-32.625,7.5-32.625,7.5l-28-22.793H228.736z"/>
			<path fill="#3F290A" d="M287.903,703.224c0,0-17-28.625-33.375-1.875c0,0,7.5,8.75,15.875-0.625s19,42.584-48.5,79.084h-4.667
				l-3,4.5h29.333l-3.667-5.25h-2.833C237.069,779.058,294.653,743.474,287.903,703.224z"/>
			<path fill="#3F290A" d="M287.071,813.953c0,0-17,28.625-33.375,1.875c0,0,7.5-8.75,15.875,0.625s19-42.584-48.5-79.084h-4.667
				l-3-4.5h29.333l-3.667,5.25h-2.833C236.237,738.119,293.821,773.703,287.071,813.953z"/>
		</g>
	</g>
</g>
<g id="Camada_2_1_">
	<path fill="#3F290A" d="M914.783,800.445c-19.594,17.82-609.429,10.9-621.608,0c-8.473-11.133,3.752-362.23,3.752-362.23
		l617.948-0.139C914.875,438.076,927.109,790.113,914.783,800.445z"/>
</g>
<g id="Camada_4_1_">
</g>
<g id="Camada_3_1_">
	<path fill="#D88D22" stroke="#1D1D1B" stroke-width="0.5" stroke-miterlimit="10" d="M890.486,754.185
		c-18.238,18.865-567.242,11.539-578.579,0c-7.886-11.785,3.493-383.459,3.493-383.459s571.625-4.78,575.172-0.146
		C890.572,370.58,901.958,743.246,890.486,754.185z"/>
	<path fill="#F7F7F7" stroke="#1D1D1B" stroke-width="2" stroke-miterlimit="10" d="M881.171,746.279
		c-17.467,18.066-543.257,11.051-554.115,0c-7.553-11.289,3.346-367.248,3.346-367.248s547.457-4.579,550.854-0.142
		C881.255,378.891,892.162,735.8,881.171,746.279z"/>
</g>
</svg>
