<?xml version="1.0" encoding="utf-8"?>
<!-- Generator: Adobe Illustrator 15.0.0, SVG Export Plug-In . SVG Version: 6.00 Build 0)  -->
<!DOCTYPE svg PUBLIC "-//W3C//DTD SVG 1.1//EN" "http://www.w3.org/Graphics/SVG/1.1/DTD/svg11.dtd">
<svg version="1.1" xmlns="http://www.w3.org/2000/svg" xmlns:xlink="http://www.w3.org/1999/xlink" x="0px" y="0px"
	 width="1190.55px" height="841.89px" viewBox="0 0 1190.55 841.89" enable-background="new 0 0 1190.55 841.89"
	 xml:space="preserve">
<g id="Camada_2">
	<g>
		<path d="M457.5,355.639c9.445,9.689,18.5,19.696,27.575,29.688c9.024,10.033,17.933,20.16,26.732,30.376
			c8.812,10.207,17.528,20.49,26.158,30.845c4.317,5.176,8.626,10.357,12.893,15.574c4.291,5.197,8.543,10.426,12.782,15.666
			l2.962,3.66l-3.457,3.143c-8.548,7.772-17.159,15.476-25.816,23.128c-8.655,7.655-17.374,15.24-26.149,22.764
			c-8.777,7.521-17.62,14.971-26.557,22.317c-8.946,7.337-17.916,14.647-27.123,21.699c7.842-8.544,15.921-16.828,24.024-25.087
			c8.112-8.248,16.318-16.395,24.59-24.468c8.274-8.071,16.604-16.082,24.998-24.021c8.392-7.943,16.83-15.835,25.331-23.658
			l-0.495,6.803c-4.285-5.201-8.558-10.413-12.792-15.657c-4.258-5.224-8.473-10.482-12.681-15.747
			c-8.419-10.527-16.751-21.125-24.989-31.8c-8.25-10.665-16.39-21.419-24.415-32.269
			C473.097,377.706,465.104,366.832,457.5,355.639z"/>
	</g>
</g>
<g id="Camada_4">
	<g>
		<path d="M540.444,355.639c9.445,9.689,18.5,19.696,27.575,29.688c9.024,10.033,17.933,20.16,26.732,30.376
			c8.812,10.207,17.528,20.49,26.158,30.845c4.316,5.176,8.626,10.357,12.893,15.574c4.29,5.197,8.543,10.426,12.781,15.666
			l2.962,3.66l-3.457,3.143c-8.548,7.772-17.158,15.476-25.815,23.128c-8.655,7.655-17.374,15.24-26.149,22.764
			c-8.777,7.521-17.62,14.971-26.557,22.317c-8.946,7.337-17.916,14.647-27.123,21.699c7.842-8.544,15.921-16.828,24.024-25.087
			c8.112-8.248,16.318-16.395,24.59-24.468c8.273-8.071,16.604-16.082,24.998-24.021c8.392-7.943,16.829-15.835,25.33-23.658
			l-0.494,6.803c-4.286-5.201-8.558-10.413-12.792-15.657c-4.258-5.224-8.473-10.482-12.681-15.747
			c-8.419-10.527-16.751-21.125-24.989-31.8c-8.25-10.665-16.39-21.419-24.415-32.269
			C556.041,377.706,548.047,366.832,540.444,355.639z"/>
	</g>
</g>
<g id="Camada_3">
	<g>
		<path d="M619.09,355.639c9.445,9.689,18.501,19.696,27.575,29.688c9.024,10.033,17.933,20.16,26.732,30.376
			c8.812,10.207,17.528,20.49,26.158,30.845c4.316,5.176,8.626,10.357,12.892,15.574c4.291,5.197,8.543,10.426,12.782,15.666
			l2.962,3.66l-3.457,3.143c-8.548,7.772-17.158,15.476-25.815,23.128c-8.655,7.655-17.374,15.24-26.149,22.764
			c-8.776,7.521-17.62,14.971-26.557,22.317c-8.946,7.337-17.916,14.647-27.123,21.699c7.842-8.544,15.921-16.828,24.023-25.087
			c8.112-8.248,16.318-16.395,24.591-24.468c8.273-8.071,16.604-16.082,24.998-24.021c8.392-7.943,16.829-15.835,25.33-23.658
			l-0.494,6.803c-4.286-5.201-8.559-10.413-12.792-15.657c-4.258-5.224-8.473-10.482-12.681-15.747
			c-8.419-10.527-16.752-21.125-24.989-31.8c-8.249-10.665-16.39-21.419-24.415-32.269
			C634.688,377.706,626.693,366.832,619.09,355.639z"/>
	</g>
</g>
</svg>
