<?xml version="1.0" encoding="utf-8"?>
<!-- Generator: Adobe Illustrator 15.0.0, SVG Export Plug-In . SVG Version: 6.00 Build 0)  -->
<!DOCTYPE svg PUBLIC "-//W3C//DTD SVG 1.1//EN" "http://www.w3.org/Graphics/SVG/1.1/DTD/svg11.dtd">
<svg version="1.1" xmlns="http://www.w3.org/2000/svg" xmlns:xlink="http://www.w3.org/1999/xlink" x="0px" y="0px"
	 width="1190.55px" height="841.89px" viewBox="0 0 1190.55 841.89" enable-background="new 0 0 1190.55 841.89"
	 xml:space="preserve">
<g id="Camada_1">
	<g id="Camada_2">
		
			<image overflow="visible" enable-background="new    " width="450" height="450" xlink:href="775D91A3.jpg"  transform="matrix(3.0318 0 0 3.0318 -1196.6997 -539.9868)">
		</image>
	</g>
	<g id="Camada_3">
		<g id="Casa_1_">
			<polygon fill="#B3B56E" points="855.798,635.861 855.798,454.555 410.039,454.555 410.039,635.892 			"/>
			<rect x="410.039" y="477.608" fill="#4E461D" width="447.908" height="8.807"/>
			<rect x="447.616" y="594.268" fill="#D3CEC4" width="17.355" height="6.402"/>
			<rect x="462.291" y="602.299" fill="#D3CEC4" width="22.558" height="6.398"/>
			<rect x="447.616" y="610.58" fill="#D3CEC4" width="17.355" height="6.4"/>
			<rect x="427.779" y="602.299" fill="#D3CEC4" width="22.556" height="6.398"/>
			<rect x="625.648" y="594.268" fill="#D3CEC4" width="18.605" height="6.37"/>
			<rect x="641.378" y="602.263" fill="#D3CEC4" width="24.184" height="6.367"/>
			<rect x="625.648" y="610.503" fill="#D3CEC4" width="18.605" height="6.372"/>
			<rect x="604.382" y="602.263" fill="#D3CEC4" width="24.184" height="6.367"/>
		</g>
		<g id="Porta_1_">
			<path fill="#FF8F35" stroke="#F7E6A4" stroke-width="0.5" stroke-miterlimit="10" d="M558.276,589.586h57.278v-74.649
				c0,0-5.148-16.93-28.64-16.93c0,0-28.638,1.579-28.638,18.134C558.276,532.697,558.276,589.586,558.276,589.586z"/>
			<path fill="#CC722A" d="M558.276,551.481c0,0,6.324,10.476,57.278,10.476v27.629h-57.278V551.481L558.276,551.481z"/>
			<path fill="#CC722A" d="M615.648,515.351c0,0-4.398-15.833-26.917-17.417c0,0-27.973,0.95-30.436,17.417H615.648z"/>
		</g>
		<g id="Porta_2_">
			<path fill="#FF8F35" stroke="#F7E6A4" stroke-width="0.5" stroke-miterlimit="10" d="M657.626,589.624h57.277v-74.649
				c0,0-5.148-16.931-28.639-16.931c0,0-28.639,1.58-28.639,18.135C657.626,532.736,657.626,589.624,657.626,589.624z"/>
			<path fill="#CC722A" d="M657.626,551.516c0,0,6.324,10.479,57.277,10.479v27.628h-57.277V551.516L657.626,551.516z"/>
		</g>
		<path fill="#CC722A" d="M714.941,515.388c0,0-4.398-15.833-26.916-17.417c0,0-27.973,0.95-30.436,17.417H714.941z"/>
		<rect x="785.726" y="594.143" fill="#D3CEC4" width="18.605" height="6.37"/>
		<rect x="801.457" y="602.137" fill="#D3CEC4" width="24.184" height="6.37"/>
		<line fill="none" x1="780.148" y1="615.184" x2="761.542" y2="615.184"/>
		<rect x="764.46" y="602.137" fill="#D3CEC4" width="24.184" height="6.37"/>
		<rect x="785.726" y="610.38" fill="#D3CEC4" width="18.605" height="6.371"/>
	</g>
	<g id="Camada_1_1_">
		<g>
			<g id="Base_1_" display="none">
				
					<image display="inline" overflow="visible" enable-background="new    " width="450" height="450" xlink:href="775D91A1.jpg"  transform="matrix(0.5692 0 0 0.4909 506.1387 447.978)">
				</image>
			</g>
			<g id="Casa_2_">
				<polygon fill="#B3B56E" points="855.835,845.44 855.271,635.877 410.564,635.877 411.129,845.484 				"/>
				<path fill="#A6A866" d="M485.219,635.877c0,0,90.021,132.224,370.619,209.563l-0.566-209.563H485.219L485.219,635.877z"/>
				<rect x="411.129" y="635.877" fill="#4E461D" width="444.158" height="11.662"/>
				<rect x="448.618" y="795.323" fill="#D3CEC4" width="17.315" height="7.078"/>
				<rect x="463.259" y="804.203" fill="#D3CEC4" width="22.504" height="7.078"/>
				<rect x="448.618" y="813.361" fill="#D3CEC4" width="17.315" height="7.078"/>
				<rect x="428.828" y="804.203" fill="#D3CEC4" width="22.504" height="7.078"/>
				<rect x="624.806" y="795.185" fill="#D3CEC4" width="17.314" height="7.077"/>
				<rect x="639.445" y="804.065" fill="#D3CEC4" width="22.506" height="7.076"/>
				<rect x="624.806" y="813.223" fill="#D3CEC4" width="17.314" height="7.076"/>
				<rect x="605.015" y="804.065" fill="#D3CEC4" width="22.504" height="7.076"/>
			</g>
			<g id="Telhado_1_">
				<polygon fill="#FAFFEB" points="412.307,454.555 857.013,454.555 640.775,141.525 				"/>
				<polygon fill="#CBCDB6" points="640.775,141.525 639.98,454.555 857.013,454.555 				"/>
				<polygon fill="none" stroke="#1D1D1B" stroke-width="3" stroke-miterlimit="10" points="503.323,327.898 620.636,442.668 
					660.509,442.668 773.75,327.898 				"/>
				
					<rect x="502.618" y="327.898" fill="none" stroke="#1D1D1B" stroke-width="3" stroke-miterlimit="10" width="272.02" height="114.994"/>
				
					<line fill="none" stroke="#1D1D1B" stroke-width="3" stroke-miterlimit="10" x1="639.98" y1="327.898" x2="639.98" y2="442.668"/>
				<polygon fill="#4E461D" points="420.825,442.892 848.871,442.892 857.013,454.555 412.307,454.555 				"/>
				<polygon display="none" fill="#94D5CD" points="640.775,122.516 729.589,185.553 693.98,185.553 778.066,252.893 
					748.494,252.893 819.257,310.25 791.792,310.25 853.576,366.117 832.126,366.117 897.337,423.839 871.175,423.839 
					940.248,490.911 907.855,504.787 				"/>
				<polygon display="none" fill="#2B4336" points="640.775,141.525 640.775,122.516 907.855,504.787 897.236,512.971 				"/>
				<polygon fill="#0196A1" enable-background="new    " points="640.775,122.516 528.338,202.322 573.416,202.322 466.962,287.574 
					504.403,287.574 414.817,360.189 449.585,360.189 371.368,430.916 398.522,430.916 315.963,503.993 349.088,503.993 
					261.641,588.905 302.647,606.473 				"/>
				<polygon fill="#2B4336" points="640.775,146.581 640.775,122.516 302.647,606.473 316.09,616.833 				"/>
			</g>
			<g id="Porta_3_">
				<g id="Camada_4_1_">
					<polyline fill="#F3F7FB" points="821.728,845.484 821.728,730.048 699.238,730.048 699.238,845.484 					"/>
				</g>
				<g id="Camada_6_1_">
					<polygon fill="#D4D4B3" points="761.232,845.44 760.49,730.048 821.728,730.048 821.728,845.24 					"/>
				</g>
				<g id="Camada_8_1_">
					<polygon fill="#D4D4B3" points="699.238,745.215 760.589,745.215 760.49,730.048 699.238,730.048 					"/>
					<polygon fill="#A1A188" points="821.728,730.048 760.49,730.048 760.589,745.215 821.728,745.215 					"/>
					<rect x="699.238" y="745.215" fill="#D4D4B3" width="5.359" height="100.225"/>
					<polygon fill="#A1A188" points="821.728,743.966 821.728,845.44 816.369,845.44 816.369,744.66 					"/>
				</g>
				<g id="Camada_7_1_">
					<path fill="#2E2E2E" d="M747.154,798.046c0,4.233-3.418,7.667-7.643,7.667c-4.223,0-7.643-3.434-7.643-7.667
						c0-4.231,3.42-7.665,7.643-7.665S747.154,793.814,747.154,798.046z"/>
				</g>
				<path fill="#AF8D42" d="M760.589,674.545h55.779c0,0,25.633,17.484,25.955,55.501h-81.734V674.545z"/>
				<path fill="#BC9D59" d="M760.589,674.545h-55.781c0,0-25.633,17.484-25.953,55.501h81.734V674.545z"/>
				<path fill="#FF8F35" stroke="#F7E6A4" stroke-width="0.5" stroke-miterlimit="10" d="M558.186,775.742h57.279v-74.65
					c0,0-5.146-16.93-28.639-16.93c0,0-28.64,1.58-28.64,18.136S558.186,775.742,558.186,775.742z"/>
				<path fill="#CC722A" d="M558.186,738.06c0,0,10.619,10.656,57.279,10.656v27.027h-57.279V738.06L558.186,738.06z"/>
				<path fill="#CC722A" d="M615.162,701.507c0,0-4.359-15.858-26.681-17.445c0,0-27.727,0.954-30.168,17.445H615.162z"/>
				<path fill="#FF8F35" stroke="#F7E6A4" stroke-width="0.5" stroke-miterlimit="10" d="M470.982,775.742h57.277v-74.65
					c0,0-5.147-16.93-28.638-16.93c0,0-28.64,1.58-28.64,18.136S470.982,775.742,470.982,775.742z"/>
				<path fill="#CC722A" d="M470.982,736.5c0,0,10.618,11.364,57.277,11.364v27.878h-57.277V736.5L470.982,736.5z"/>
				<path fill="#CC722A" d="M528.125,701.507c0,0-4.375-15.968-26.778-17.564c0,0-27.827,0.958-30.276,17.564H528.125z"/>
				<rect x="619.605" y="247.533" fill="#494840" width="40.545" height="50.507"/>
				<path fill="#639A8C" d="M613.802,247.533c0,0,21.238-32.373,27.029-32.373v32.373H613.802z"/>
				<path fill="#639A8C" d="M667.863,247.533c0,0-21.391-32.373-27.23-32.373v32.373H667.863z"/>
			</g>
			<g id="Castelo_x5F_1_1_" display="none">
				<g id="Mur_x5F_castelo_x5F_1_1_" display="inline">
					<polygon fill="#948D81" points="614.714,566.672 614.714,540.651 608.193,540.651 608.193,545.025 602.494,545.053 
						602.494,540.651 596.144,540.651 596.144,545.246 590.362,545.223 590.362,540.651 584.681,540.651 584.681,545.223 
						578.973,545.246 578.973,540.651 573.463,540.651 573.463,545.542 567.188,545.542 567.188,540.792 561.801,540.792 
						561.801,566.672 					"/>
					<path fill="#D3CEC4" d="M612.552,566.672v-16.547c-2.586-2.793-5.172-0.064-5.172-0.064v16.613"/>
					<rect x="609.773" y="543.263" fill="#C6C2B8" width="2.783" height="1.819"/>
					<rect x="598.181" y="543.263" fill="#C6C2B8" width="2.785" height="1.819"/>
					<rect x="586.18" y="543.263" fill="#C6C2B8" width="2.784" height="1.819"/>
					<rect x="574.965" y="543.263" fill="#C6C2B8" width="2.784" height="1.819"/>
					<rect x="563.016" y="543.192" fill="#C6C2B8" width="2.784" height="1.819"/>
					<path fill="#C6C2B8" d="M612.558,566.672l-0.006-16.547c-0.91-1.429-2.686-1.254-2.686-1.254v17.803"/>
					<path fill="#D3CEC4" d="M604.988,566.672v-16.547c-2.586-2.793-5.172-0.064-5.172-0.064v16.613"/>
					<path fill="#C6C2B8" d="M604.994,566.672l-0.006-16.547c-0.91-1.429-2.684-1.254-2.684-1.254v17.803"/>
					<path fill="#D3CEC4" d="M576.35,566.672v-16.547c-2.586-2.793-5.172-0.064-5.172-0.064v16.613"/>
					<path fill="#C6C2B8" d="M576.356,566.672l-0.007-16.547c-0.909-1.429-2.684-1.254-2.684-1.254v17.803"/>
					<path fill="#D3CEC4" d="M569.58,566.672v-16.547c-2.586-2.793-5.172-0.064-5.172-0.064v16.613"/>
					<path fill="#C6C2B8" d="M569.586,566.672l-0.006-16.547c-0.91-1.429-2.684-1.254-2.684-1.254v17.803"/>
					<polygon fill="#D3CEC4" points="598.181,545.083 598.181,543.263 600.966,545.083 					"/>
					<polygon fill="#D3CEC4" points="609.773,545.083 609.773,543.263 612.556,545.083 					"/>
					<polygon fill="#D3CEC4" points="586.18,545.083 586.18,543.263 588.964,545.083 					"/>
					<polygon fill="#D3CEC4" points="574.965,545.083 574.965,543.263 577.749,545.083 					"/>
					<rect x="577.875" y="546.667" fill="#D3CEC4" width="1.33" height="0.544"/>
					<rect x="579" y="547.349" fill="#D3CEC4" width="1.729" height="0.543"/>
					<rect x="577.875" y="548.051" fill="#D3CEC4" width="1.33" height="0.544"/>
					<rect x="576.356" y="547.349" fill="#D3CEC4" width="1.728" height="0.543"/>
					<rect x="597.304" y="546.656" fill="#D3CEC4" width="1.33" height="0.544"/>
					<rect x="598.429" y="547.339" fill="#D3CEC4" width="1.729" height="0.544"/>
					<rect x="597.304" y="548.042" fill="#D3CEC4" width="1.33" height="0.544"/>
					<rect x="595.785" y="547.339" fill="#D3CEC4" width="1.729" height="0.544"/>
					<rect x="605.441" y="546.656" fill="#D3CEC4" width="1.33" height="0.544"/>
					<rect x="606.566" y="547.339" fill="#D3CEC4" width="1.727" height="0.544"/>
					<rect x="605.441" y="548.042" fill="#D3CEC4" width="1.33" height="0.544"/>
					<rect x="603.921" y="547.339" fill="#D3CEC4" width="1.73" height="0.544"/>
					<rect x="569.761" y="546.656" fill="#D3CEC4" width="1.33" height="0.544"/>
					<rect x="570.885" y="547.339" fill="#D3CEC4" width="1.729" height="0.544"/>
					<rect x="569.761" y="548.042" fill="#D3CEC4" width="1.33" height="0.544"/>
					<rect x="568.241" y="547.339" fill="#D3CEC4" width="1.728" height="0.544"/>
					<polygon fill="#D3CEC4" points="563.016,545.011 563.016,543.192 565.8,545.011 					"/>
				</g>
				<g id="Castelo_x5F_Muralha_x7C__x5F_1_1_" display="inline">
					<path fill="#4E2910" d="M587.608,548.668c-0.019-0.118,0.061-0.234-0.059-0.27c-0.72-0.225-2.066,0.135-2.75,0.305
						c-1.28,0.316-2.396,0.862-3.504,1.489c-0.24,0.136-0.271,0.459,0,0.589c-0.175-0.084-0.563,0.455-0.647,0.62
						c-0.163,0.313-0.538,2.501-0.165,2.347c0.247-0.104,0.997-2.05,1.134-2.264c0.322-0.504,0.728-0.811,1.301-1.097
						c1.057-0.525,2.51-0.636,3.717-0.773c0.111-0.014,0.194-0.059,0.255-0.118c0.195,0.176,0.666,0.097,0.708-0.233
						C587.625,549.052,587.641,548.875,587.608,548.668z"/>
					<path display="none" fill="#DBAC7B" d="M586.105,548.301c-0.231-0.095-0.5-0.127-0.776-0.058
						c-8.901,2.175-3.436,11.473-5.25,17.1c-0.231,0.72,0.589,1.511,1.459,1.257c1.559-0.451,3.491,0.077,5.095,0.081
						c0.871,0.002,1.516-0.88,1.024-1.54c-0.282-0.377-0.005-1.239,0.013-1.678c0.068-1.578-0.007-3.168,0.033-4.748
						c0.075-2.915-0.858-6.486,0.171-9.3C588.235,548.43,586.917,547.892,586.105,548.301z"/>
					<g>
						<g>
							<path fill="#9A5A30" d="M580.292,566.524c0,0-0.133-8.738,0-11.648c0.095-2.075,0.502-5.468,7.439-5.468
								c6.818,0,7.502,3.17,7.502,5.15c0,2.992,0,11.965,0,11.965L580.292,566.524"/>
						</g>
						<line fill="none" x1="587.733" y1="566.524" x2="587.73" y2="549.41"/>
					</g>
					<path fill="#331603" d="M595.724,552.306c-0.346-0.92-0.938-1.758-1.739-2.442c-0.888-0.758-2.063-0.93-3.198-1.241
						c-0.212-0.037-0.355-0.145-0.506-0.077c-0.451-0.103-0.933-0.074-1.359-0.199c-0.968-0.283-1.379,1.033-0.419,1.315
						c0.902,0.267,1.893,0.483,2.829,0.641c0.14,0.021,0.264,0.015,0.378-0.007c0.404,0.124,0.792,0.281,1.158,0.532
						c0.62,0.424,1.095,1.206,1.333,1.841C594.511,553.502,596.037,553.145,595.724,552.306z"/>
					<path fill="#4D2D18" d="M595.612,556.944c0.143-1.445,0.299-2.73-0.157-3.801c0.122-0.259-0.14-0.523-0.311-0.789
						c-0.545-0.856-1.32-1.468-2.304-2.007c-0.23-0.124-0.312-0.188-0.706-0.288c-0.308-0.143-0.579-0.158-0.936-0.288
						c-0.342-0.121-0.935-0.275-1.439-0.318c-2.015-0.342-1.804,0.061-1.938,0.984c-0.735,4.987,0.288,10.192,0.05,15.213
						c-0.025,0.527,0.559,0.937,1.186,0.952c1.875,0.042,3.635,0.119,5.511,0.04c0.381-0.019,0.954-0.138,1.023-0.472
						C596.162,563.398,595.332,559.803,595.612,556.944z"/>
					<g>
						<g>
							<path fill="none" stroke="#5D5D5C" stroke-miterlimit="10" d="M580.073,566.672c0,0-0.143-9.591-0.001-12.675
								c0.1-2.2,0.526-5.793,7.807-5.793c7.156,0,7.873,3.359,7.873,5.458c0,3.168,0,12.675,0,12.675h-15.68"/>
						</g>
						<line fill="none" stroke="#5D5D5C" stroke-miterlimit="10" x1="587.88" y1="566.339" x2="587.878" y2="548.205"/>
					</g>
					<path fill="#4E2910" d="M586.182,557.686c0,0.715-0.671,1.294-1.499,1.294l0,0c-0.827,0-1.499-0.579-1.499-1.294v-0.554
						c0-0.715,0.672-1.292,1.499-1.292l0,0c0.828,0,1.499,0.577,1.499,1.292V557.686z"/>
					<path fill="#F8E2C9" d="M586.182,557.416c0,0.609-0.67,1.103-1.499,1.103l0,0c-0.827,0-1.499-0.495-1.499-1.103v-0.474
						c0-0.608,0.672-1.102,1.499-1.102l0,0c0.829,0,1.499,0.493,1.499,1.102V557.416z"/>
					<path fill="#1E0C02" d="M592.828,557.686c0,0.715-0.671,1.294-1.499,1.294l0,0c-0.828,0-1.499-0.579-1.499-1.294v-0.554
						c0-0.715,0.671-1.292,1.499-1.292l0,0c0.828,0,1.499,0.577,1.499,1.292V557.686z"/>
					<path fill="#F8E2C9" d="M592.828,557.416c0,0.609-0.671,1.103-1.499,1.103l0,0c-0.828,0-1.499-0.495-1.499-1.103v-0.474
						c0-0.608,0.671-1.102,1.499-1.102l0,0c0.828,0,1.499,0.493,1.499,1.102V557.416z"/>
					<rect x="580.468" y="565.945" fill="#9A5A30" width="7.029" height="0.728"/>
					<rect x="588.271" y="565.945" fill="#4D2D18" width="7.068" height="0.728"/>
				</g>
			</g>
		</g>
	</g>
	<g id="Camada_4">
		<linearGradient id="SVGID_1_" gradientUnits="userSpaceOnUse" x1="641.3784" y1="364.4946" x2="1020.5112" y2="364.4946">
			<stop  offset="0" style="stop-color:#60D3DB"/>
			<stop  offset="0.2927" style="stop-color:#40B5BD"/>
			<stop  offset="0.7637" style="stop-color:#128A93"/>
			<stop  offset="1" style="stop-color:#007982"/>
		</linearGradient>
		<polygon fill="url(#SVGID_1_)" enable-background="new    " points="979.505,606.473 1020.511,588.905 933.064,503.993 
			966.189,503.993 883.63,430.916 910.785,430.916 832.568,360.189 867.335,360.189 777.75,287.574 815.191,287.574 
			708.738,202.322 753.814,202.322 641.378,122.516 		"/>
		<polygon fill="#2B4336" points="966.062,616.833 979.505,606.473 641.378,122.516 641.378,146.581 		"/>
		<g id="Porta_4_">
			<path fill="#FF8F35" stroke="#F7E6A4" stroke-width="0.5" stroke-miterlimit="10" d="M465.934,591.05h57.278V516.4
				c0,0-5.147-16.93-28.64-16.93c0,0-28.639,1.58-28.639,18.136C465.934,534.163,465.934,591.05,465.934,591.05z"/>
			<path fill="#CC722A" d="M465.934,552.945c0,0,6.325,10.477,57.278,10.477v27.628h-57.278V552.945L465.934,552.945z"/>
			<path fill="#CC722A" d="M523.306,516.816c0,0-4.397-15.834-26.917-17.418c0,0-27.972,0.95-30.435,17.418H523.306z"/>
		</g>
		<g id="Porta_5_">
			<path fill="#FF8F35" stroke="#F7E6A4" stroke-width="0.5" stroke-miterlimit="10" d="M745.062,591.087h57.279v-74.65
				c0,0-5.146-16.93-28.641-16.93c0,0-28.639,1.58-28.639,18.136C745.062,534.2,745.062,591.087,745.062,591.087z"/>
			<path fill="#CC722A" d="M745.062,552.982c0,0,6.326,10.477,57.279,10.477v27.628h-57.279V552.982L745.062,552.982z"/>
			<path fill="#CC722A" d="M802.435,516.853c0,0-4.396-15.835-26.918-17.418c0,0-27.971,0.95-30.434,17.418H802.435z"/>
		</g>
	</g>
</g>
<g id="Camada_3_1_">
	<polygon fill="#272726" enable-background="new    " points="743.863,140.057 847.809,140.057 847.809,286.164 947.705,286.164 
		947.705,123.176 743.863,125.505 	"/>
	<polygon fill="#305F7B" enable-background="new    " points="846.834,210.413 947.705,210.413 947.705,123.176 847.06,123.654 	"/>
	<polygon fill="#FFCE62" enable-background="new    " points="847.809,286.164 947.705,286.164 947.705,210.413 846.834,210.413 	
		"/>
	<polygon fill="#BE6D36" enable-background="new    " points="846.945,167.724 888.908,167.724 888.908,123.176 906.681,123.176 
		906.681,167.724 947.705,167.761 947.705,181.56 906.681,181.502 906.531,286.164 888.938,286.154 888.683,181.89 846.834,181.46 	
		"/>
</g>
<g id="Camada_2_1_">
	<linearGradient id="SVGID_2_" gradientUnits="userSpaceOnUse" x1="838.3452" y1="246.0645" x2="850.1541" y2="605.2161">
		<stop  offset="0" style="stop-color:#60D3DB"/>
		<stop  offset="0.2927" style="stop-color:#40B5BD"/>
		<stop  offset="0.7637" style="stop-color:#128A93"/>
		<stop  offset="1" style="stop-color:#007982"/>
	</linearGradient>
	<path fill="url(#SVGID_2_)" enable-background="new    " d="M639.062,488.849l413.444-3.517v-29.542
		c0,0-319.037-140.675-320.664-455.791h-92.78V488.849z"/>
	
		<linearGradient id="SVGID_3_" gradientUnits="userSpaceOnUse" x1="-1332.3247" y1="246.064" x2="-1320.5159" y2="605.2153" gradientTransform="matrix(-1 0 0 1 -891.7813 0)">
		<stop  offset="0" style="stop-color:#60D3DB"/>
		<stop  offset="0.2927" style="stop-color:#40B5BD"/>
		<stop  offset="0.7637" style="stop-color:#128A93"/>
		<stop  offset="1" style="stop-color:#007982"/>
	</linearGradient>
	<path fill="url(#SVGID_3_)" enable-background="new    " d="M639.827,488.849l-413.444-3.517v-29.542
		c0,0,319.038-140.675,320.665-455.791h92.78V488.849z"/>
	<polygon fill="#225556" enable-background="new    " points="527.117,127.395 751.004,127.395 755.076,140.02 523.047,140.02 	"/>
	<polygon fill="#225556" enable-background="new    " points="416.397,314.445 860.969,314.119 873.297,327.072 406.358,325.504 	
		"/>
	<path fill="#FCFED3" stroke="#000000" stroke-width="2" stroke-miterlimit="10" enable-background="new    " d="M631.024,271.476
		h32.352V179.15c0,0-4.272-19.689-32.352-19.689c0,0-30.52-1.33-30.825,21.285v90.73H631.024z"/>
	<path fill="#B2B992" enable-background="new    " d="M631.024,161.5l0.729,107.802h30.097v-89.03
		C661.849,180.272,656.56,161.28,631.024,161.5z"/>
	<polygon fill="#225556" enable-background="new    " points="621.512,25.541 661.849,25.541 661.849,37.959 649.59,37.959 
		649.59,47.536 634.94,47.536 634.954,37.77 621.512,37.77 	"/>
	<polygon fill="#225556" enable-background="new    " points="590.686,76.627 631.024,76.627 631.024,89.042 618.766,89.042 
		618.766,98.621 604.115,98.621 604.128,88.854 590.686,88.854 	"/>
	<polygon fill="#225556" enable-background="new    " points="651.295,76.627 691.633,76.627 691.633,89.042 679.374,89.042 
		679.374,98.621 664.723,98.621 664.737,88.854 651.295,88.854 	"/>
	<polygon fill="#225556" enable-background="new    " points="511.996,207.887 552.333,207.887 552.333,220.301 540.075,220.301 
		540.075,229.879 525.426,229.879 525.438,220.112 511.996,220.112 	"/>
	<polygon fill="#225556" enable-background="new    " points="481.17,258.972 521.508,258.972 521.508,271.385 509.25,271.385 
		509.25,280.962 494.599,280.962 494.612,271.198 481.17,271.198 	"/>
	<polygon fill="#225556" enable-background="new    " points="541.779,258.972 582.117,258.972 582.117,271.385 569.858,271.385 
		569.858,280.962 555.208,280.962 555.221,271.198 541.779,271.198 	"/>
	<polygon fill="#225556" enable-background="new    " points="705.34,212.498 745.678,212.498 745.678,224.91 733.419,224.91 
		733.419,234.49 718.77,234.49 718.782,224.724 705.34,224.724 	"/>
	<polygon fill="#225556" enable-background="new    " points="674.515,263.581 714.853,263.581 714.853,275.996 702.594,275.996 
		702.594,285.573 687.944,285.573 687.958,275.809 674.515,275.809 	"/>
	<polygon fill="#225556" enable-background="new    " points="735.124,263.581 775.461,263.581 775.461,275.996 763.204,275.996 
		763.204,285.573 748.552,285.573 748.566,275.809 735.124,275.809 	"/>
	<polygon fill="#225556" enable-background="new    " points="512.517,380.296 552.854,380.296 552.854,392.709 540.596,392.709 
		540.596,402.289 525.946,402.289 525.958,392.523 512.517,392.523 	"/>
	<polygon fill="#225556" enable-background="new    " points="481.691,431.38 522.029,431.38 522.029,443.794 509.771,443.794 
		509.771,453.373 495.12,453.373 495.133,443.609 481.691,443.609 	"/>
	<polygon fill="#225556" enable-background="new    " points="542.3,431.38 582.637,431.38 582.637,443.794 570.379,443.794 
		570.379,453.373 555.729,453.373 555.742,443.609 542.3,443.609 	"/>
	<polygon fill="#225556" enable-background="new    " points="705.862,380.296 746.2,380.296 746.2,392.709 733.94,392.709 
		733.94,402.289 719.292,402.289 719.303,392.523 705.862,392.523 	"/>
	<polygon fill="#225556" enable-background="new    " points="675.036,431.38 715.374,431.38 715.374,443.794 703.116,443.794 
		703.116,453.373 688.465,453.373 688.478,443.609 675.036,443.609 	"/>
	<polygon fill="#225556" enable-background="new    " points="735.645,431.38 775.983,431.38 775.983,443.794 763.724,443.794 
		763.724,453.373 749.073,453.373 749.086,443.609 735.645,443.609 	"/>
	<polygon fill="#225556" enable-background="new    " points="831.491,383.487 871.829,383.487 871.829,395.902 859.569,395.902 
		859.569,405.48 844.918,405.48 844.932,395.714 831.491,395.714 	"/>
	<polygon fill="#225556" enable-background="new    " points="800.665,434.571 841.002,434.571 841.002,446.986 828.743,446.986 
		828.743,456.563 814.094,456.563 814.107,446.799 800.665,446.799 	"/>
	<polygon fill="#225556" enable-background="new    " points="861.274,434.571 901.612,434.571 901.612,446.986 889.352,446.986 
		889.352,456.563 874.702,456.563 874.715,446.799 861.274,446.799 	"/>
	<polygon fill="#225556" enable-background="new    " points="374.096,380.295 414.434,380.295 414.434,392.709 402.175,392.709 
		402.175,402.288 387.526,402.288 387.538,392.521 374.096,392.521 	"/>
	<polygon fill="#225556" enable-background="new    " points="343.271,431.377 383.608,431.377 383.608,443.792 371.35,443.792 
		371.35,453.371 356.699,453.371 356.713,443.607 343.271,443.607 	"/>
	<polygon fill="#225556" enable-background="new    " points="403.88,431.377 444.217,431.377 444.217,443.792 431.959,443.792 
		431.959,453.371 417.308,453.371 417.321,443.607 403.88,443.607 	"/>
</g>
</svg>
